<svg width="440" height="439" viewBox="0 0 440 439" fill="none" xmlns="http://www.w3.org/2000/svg">
<g clip-path="url(#clip0_25_24)">
<path d="M220.759 439.308H218.779C40.2994 435.768 -65.0006 232.618 45.3594 86.3584C139.849 -38.8816 336.139 -24.7216 411.549 112.628C491.689 258.588 386.209 437.998 220.759 439.318V439.308ZM204.889 76.2584L184.969 79.1484L182.969 85.0884L183.049 355.008C184.419 362.218 198.669 361.138 204.889 361.938V76.2584ZM250.519 78.2484L226.709 76.2684V361.948L250.519 359.968V78.2484ZM270.349 354.008C276.069 350.928 290.899 348.018 292.179 341.118L292.289 98.9684C291.729 89.4284 277.479 88.1784 270.349 84.2084V354.018V354.008ZM157.269 90.1484L139.329 99.4084L139.259 337.198L140.699 340.298L157.269 348.038V90.1484ZM308.049 332.178L329.829 311.308L328.789 125.948L308.049 106.018V332.178ZM107.679 308.378V129.828C65.0794 179.538 65.3494 258.648 107.679 308.378ZM341.769 143.718V294.488L355.729 267.778C365.799 237.388 366.769 205.598 357.079 175.018L341.769 143.708V143.718Z" fill="white"/>
</g>
<defs>
<clipPath id="clip0_25_24">
<rect width="439" height="438" fill="white" transform="translate(0.25 0.439453)"/>
</clipPath>
</defs>
</svg>
