<svg width="3076" height="440" viewBox="0 0 3076 440" fill="none" xmlns="http://www.w3.org/2000/svg">
<g clip-path="url(#clip0_24_7)">
<path d="M221.259 439.734H219.279C40.7994 436.194 -64.5006 233.044 45.8594 86.7844C140.349 -38.4556 336.639 -24.2956 412.049 113.054C492.189 259.014 386.709 438.424 221.259 439.744V439.734ZM205.389 76.6844L185.469 79.5744L183.469 85.5144L183.549 355.434C184.919 362.644 199.169 361.564 205.389 362.364V76.6844ZM251.019 78.6744L227.209 76.6944V362.374L251.019 360.394V78.6744ZM270.849 354.434C276.569 351.354 291.399 348.444 292.679 341.544L292.789 99.3944C292.229 89.8544 277.979 88.6044 270.849 84.6344V354.444V354.434ZM157.769 90.5744L139.829 99.8344L139.759 337.624L141.199 340.724L157.769 348.464V90.5744ZM308.549 332.604L330.329 311.734L329.289 126.374L308.549 106.444V332.604ZM108.179 308.804V130.254C65.5794 179.964 65.8494 259.074 108.179 308.804ZM342.269 144.144V294.914L356.229 268.204C366.299 237.814 367.269 206.024 357.579 175.444L342.269 144.134V144.144Z" fill="white"/>
<path d="M2538.01 1.89443C2697.84 -13.0056 2821.48 131.324 2773.03 286.504C2715.89 469.504 2462.91 492.414 2371.43 324.014C2298.97 190.624 2385.95 16.0744 2538.02 1.89443H2538.01ZM2589.99 362.364V79.6644C2585.29 76.5344 2564.64 73.3644 2559.55 75.0144C2558.11 75.4844 2557.13 76.5144 2556.26 77.6844V361.374C2565.52 369.054 2578.91 359.984 2589.99 362.364ZM2532.46 80.6544C2527.26 79.8144 2507.84 84.8944 2505.64 88.5544L2504.68 347.484C2506.06 355.024 2525.61 357.704 2532.46 360.374V80.6544ZM2611.81 354.434C2618.15 353.824 2638.51 345.404 2639.59 339.564L2639.7 101.374C2638.67 92.5344 2619.78 86.2944 2611.81 84.6244V354.434ZM2472.94 330.624V108.434C2402.97 163.654 2402.99 275.394 2472.94 330.624ZM2659.43 326.654C2724.5 272.784 2724.5 166.264 2659.43 112.394V326.654Z" fill="white"/>
<path d="M1532.59 369.304C1532.06 371.154 1520.5 381.614 1517.67 382.154C1511.7 383.294 1456.85 382.794 1453.27 381.174C1451.62 380.424 1442.27 370.704 1441.74 368.904L1441.23 87.4944C1442.15 80.5844 1451.45 71.5244 1458.09 70.6344C1466.36 69.5244 1538.93 69.5144 1542.53 71.7044L1609.98 191.744L1679.7 71.0544L1767.62 70.7744C1774.02 71.9944 1783.95 84.3644 1782.64 91.4644L1782.14 366.904C1775.94 374.104 1771.85 381.324 1761.84 382.314C1751.21 383.364 1713.62 383.944 1704.23 382.154C1700.39 381.424 1689.31 370.214 1689.31 367.314V213.564L1647.43 287.744C1645.93 290.784 1643.73 290.714 1640.83 291.054C1633.99 291.864 1579.01 291.594 1576.24 289.924L1532.58 213.554V369.284L1532.59 369.304Z" fill="white"/>
<path d="M2887.57 369.304C2887.04 371.154 2875.48 381.614 2872.65 382.154C2866.68 383.294 2811.83 382.794 2808.25 381.174C2806.6 380.424 2797.25 370.704 2796.72 368.904L2797.34 82.6743C2802.24 78.3743 2806.06 70.9443 2813.07 70.6343C2885.29 76.8543 3006.78 47.3543 3051.87 121.684C3079.6 167.394 3069.24 250.234 3018.77 277.324L3018.42 279.934C3022.79 291.904 3077.53 363.584 3075.17 368.274C3073.88 370.834 3062.1 381.594 3059.12 382.164L2978.85 381.184L2926.25 298.884H2887.56V369.314L2887.57 369.304ZM2887.57 223.494H2946.09C2946.99 223.494 2960.58 218.874 2962.37 217.954C2984.66 206.394 2985.13 165.664 2963.62 152.404C2961.12 150.864 2950.08 146.134 2948.07 146.134H2887.56V223.504L2887.57 223.494Z" fill="white"/>
<path d="M787.349 345.804C726.619 283.694 759.379 168.384 750.829 89.4643C749.199 84.3743 759.259 73.4143 762.889 71.7643C766.519 70.1143 821.289 69.6343 827.289 70.7843C829.599 71.2243 840.399 78.9443 841.239 80.6443L842.139 254.324C842.679 315.254 933.119 326.044 944.859 265.634L946.409 82.6843C950.469 79.2443 954.909 71.8243 960.309 70.7943C968.939 69.1443 1012.42 69.3843 1021.87 70.6443C1029.61 71.6743 1038.22 81.6043 1038.67 89.5543C1030.52 179.454 1070.09 320.244 969.249 369.384C915.889 395.384 830.199 389.624 787.369 345.824L787.349 345.804Z" fill="white"/>
<path d="M2028.23 325.004H1912.82C1905.74 327.404 1898.37 371.434 1882.85 380.324C1872.18 386.444 1830.05 379.684 1815.33 382.154L1800.81 369.044L1921.4 77.6543L1930.84 71.2243C1955.11 72.8043 1986.39 67.4543 2009.8 70.6543C2015.36 71.4143 2019.71 74.7443 2023.52 78.7543L2140.35 364.864C2141.97 369.574 2128.59 381.424 2124.73 382.164L2057.73 381.804C2043.98 377.764 2034.58 337.114 2028.23 325.014V325.004ZM2000.78 253.254L1971 163.984L1937.3 253.254H2000.78Z" fill="white"/>
<path d="M562.479 298.884V369.314C562.479 370.314 550.569 381.584 547.559 382.164C538.149 383.964 502.669 383.284 491.959 382.304C481.959 381.384 476.929 377.134 472.109 368.434L471.099 89.4744C470.379 81.7144 481.059 71.5744 487.979 70.6444C543.089 75.2744 610.609 61.7744 663.229 78.1244C779.199 114.154 748.659 298.894 626.959 298.894H562.479V298.884ZM562.479 146.124V220.514L565.459 223.494H615.059C615.959 223.494 629.549 218.874 631.339 217.954C653.629 206.394 654.099 165.664 632.589 152.404C630.089 150.864 619.049 146.134 617.039 146.134H562.479V146.124Z" fill="white"/>
<path d="M1288.25 155.724C1270.06 168.034 1249.76 154.564 1229.47 150.684C1214.32 147.784 1195.68 144.914 1180.39 146.054C1150.89 148.254 1141.32 162.504 1172.18 176.224C1218.18 196.684 1287.95 197.944 1305.88 256.784C1330.03 336.034 1259.69 379.444 1190.36 384.174C1166.08 385.824 1089.1 377.974 1070.47 363.254C1058.34 353.664 1062.65 331.924 1064.42 317.754C1065.07 312.534 1065.68 302.164 1066.79 298.294C1068.17 293.474 1078.87 284.404 1084.71 285.334C1091.78 286.464 1107.59 294.294 1117.12 296.764C1135.83 301.614 1199.75 312.984 1212.07 296.794C1226.79 277.454 1185.43 265.984 1173.51 262.194C1118.2 244.614 1054.82 234.664 1058.48 159.064C1063.14 63.0943 1187.41 56.9443 1257.68 74.8643C1267.79 77.4443 1288.75 82.5743 1292.14 93.9743C1296.45 108.464 1287.88 139.544 1288.25 155.734V155.724Z" fill="white"/>
<path d="M2149.57 300.864C2167.41 289.684 2178.59 299.394 2196.73 302.314C2209.57 304.374 2235.63 307.264 2244.53 295.634C2246.34 293.274 2250.75 280.414 2250.75 278.054V148.114H2170.4C2167.84 148.114 2157.87 134.904 2157.4 131.354C2156.38 123.704 2156.2 90.7043 2157.55 83.6843C2158.5 78.7043 2164.22 75.2743 2167.46 71.7743L2323.28 70.6243C2331.04 69.9043 2341.18 80.5843 2342.11 87.5043C2338.03 152.584 2347.23 223.574 2341.98 287.944C2338.12 335.194 2309.4 371.074 2262.71 381.274C2239.13 386.424 2182.88 386.114 2161.01 375.734C2158.81 374.694 2149.57 366.124 2149.57 365.344V300.864Z" fill="white"/>
</g>
<defs>
<clipPath id="clip0_24_7">
<rect width="3074.5" height="438.9" fill="white" transform="translate(0.75 0.833008)"/>
</clipPath>
</defs>
</svg>
